<svg width="268" height="268" viewBox="0 0 268 268" fill="none" xmlns="http://www.w3.org/2000/svg">
<path d="M267.26 148.067C269.949 122.593 265.28 96.8825 253.807 73.9806C242.334 51.0787 224.537 31.945 202.524 18.8461C180.512 5.74723 155.206 -0.768043 129.605 0.0720945C104.004 0.912232 79.1797 9.07258 58.0734 23.5865L60.0749 26.4971C80.6248 12.3658 104.794 4.42058 129.721 3.60259C154.647 2.7846 179.286 9.12812 200.718 21.8817C222.15 34.6353 239.478 53.2646 250.649 75.5628C261.819 97.861 266.365 122.894 263.747 147.696L267.26 148.067Z" fill="#FFEFC1"/>
<path d="M2.67906 107.339C-3.98971 140.187 1.89373 174.341 19.1687 203.064C36.4438 231.787 63.8559 252.993 95.9974 262.498C128.139 272.004 162.676 269.119 192.795 254.413C222.914 239.706 246.428 214.246 258.698 183.055L255.411 181.762C243.464 212.131 220.57 236.92 191.245 251.238C161.92 265.557 128.293 268.366 96.9992 259.111C65.7049 249.856 39.0154 229.209 22.1958 201.243C5.3762 173.277 -0.352147 140.023 6.14083 108.042L2.67906 107.339Z" fill="#F9D2CD"/>
</svg>
