<svg width="268" height="268" viewBox="0 0 268 268" fill="none" xmlns="http://www.w3.org/2000/svg">
<path d="M228.752 39.2477C210.012 20.5074 186.136 7.74518 160.142 2.57477C134.149 -2.59565 107.206 0.0580037 82.7204 10.2002C58.2351 20.3423 37.3072 37.5174 22.5831 59.5536C7.85895 81.5898 -4.00179e-06 107.497 0 134L3.53239 134C3.53239 108.196 11.1842 82.9714 25.5201 61.5161C39.8561 40.0608 60.2324 23.3384 84.0722 13.4637C107.912 3.58887 134.145 1.00517 159.453 6.03929C184.761 11.0734 208.008 23.4992 226.255 41.7455L228.752 39.2477Z" fill="#DCF8DB"/>
<path d="M190.039 255.72C220.375 241.753 244.403 216.962 257.413 186.203C270.424 155.445 271.48 120.937 260.374 89.4403L257.043 90.6149C267.856 121.281 266.828 154.88 254.16 184.827C241.492 214.775 218.098 238.913 188.561 252.511L190.039 255.72Z" fill="#F9D2CD"/>
</svg>
